<?xml version="1.0" standalone="no"?>
<!DOCTYPE svg PUBLIC "-//W3C//DTD SVG 20010904//EN"
 "http://www.w3.org/TR/2001/REC-SVG-20010904/DTD/svg10.dtd">
<svg version="1.0" xmlns="http://www.w3.org/2000/svg"
 width="865.000000pt" height="216.000000pt" viewBox="0 0 865.000000 216.000000"
 preserveAspectRatio="xMidYMid meet">

<g transform="translate(0.000000,216.000000) scale(0.100000,-0.100000)"
fill="#000000" stroke="none">
<path d="M10 1075 l0 -1075 485 0 485 0 0 281 0 281 -235 294 c-129 161 -235
295 -235 299 0 3 52 5 114 5 l115 0 117 -148 c65 -81 142 -178 172 -215 l53
-68 137 173 c75 95 152 192 170 216 l34 42 119 0 c100 0 119 -2 112 -14 -7
-13 -241 -302 -397 -491 l-66 -80 0 -287 0 -288 485 0 485 0 0 1075 0 1075
-500 0 -500 0 -2 -322 -3 -323 -70 0 -70 0 -3 323 -2 322 -500 0 -500 0 0
-1075z m884 472 c61 -105 128 -222 149 -260 l39 -67 103 178 c57 99 122 214
145 256 24 43 48 80 55 82 6 3 46 4 88 2 l76 -3 -108 -185 c-305 -519 -350
-595 -358 -597 -9 -3 -47 59 -203 327 -53 91 -133 227 -178 303 -45 76 -82
142 -82 147 0 6 36 10 83 10 l82 0 109 -193z"/>
</g>
</svg>
